:SAMPLES-PER-SECOND 30
:FULLY-SPECIFIED
:DEGREES
487
root  -4.59177 40.966 -1.46131 -1.90466 -75.4665 6.08649
RightUpLeg  3.72619 -1.66329 0.632332
RightLeg  -7.96152 -36.8141 6.22361
RightFoot  -1.14774 -0.063933 0.652396
RightToes  -3.10678e-008 1.75238e-005 3.56266e-009
Spine  9.12517 -0.252297 -4.2476
Spine1  -15.3101 -0.610207 4.74211
HEad  -8.71302 16.1497 -0.548242
LeftShoulder1  -0.351906 5.53329 -9.9531
LeftArm  -76.1918 -12.9377 -8.24141
LeftForeArm  33.5276 -53.3142 -12.3366
LeftHand  -0.444247 -4.38509 5.55743
RightShoulder  0.854429 0.0291911 17.7012
RightArm  2.79842 -19.0657 53.0847
RightForeArm  39.3942 71.5231 30.8645
RightHand  -0.374638 7.51983 -3.72473
LeftUpLeg  0.0970019 0.619557 3.12914
LeftLeg  -6.45484 4.41909 -1.13628
LeftFoot  3.54585 0.581784 -4.61709
LeftToes  4.7643e-008 1.47522e-008 1.32869e-009
488
root  -4.59886 40.9618 -1.45033 -1.88965 -75.7449 5.99524
RightUpLeg  3.81426 -1.57918 0.692052
RightLeg  -7.97765 -36.6232 6.14171
RightFoot  -1.13365 -0.0671375 0.694552
RightToes  -3.10678e-008 1.75238e-005 3.56266e-009
Spine  9.09095 -0.217957 -4.28968
Spine1  -15.0051 -0.586131 4.68597
HEad  -8.31888 15.879 -0.136836
LeftShoulder1  -0.350063 5.48696 -10.3057
LeftArm  -76.6762 -12.2568 -8.28795
LeftForeArm  34.4177 -54.4334 -12.8438
LeftHand  -0.467688 -5.03092 5.51064
RightShoulder  0.778768 -0.259868 17.526
RightArm  2.85464 -18.9425 53.2863
RightForeArm  39.7823 71.3839 30.4551
RightHand  -0.335337 8.04964 -3.26295
LeftUpLeg  0.271946 0.684505 3.17188
LeftLeg  -6.53894 4.58967 -1.18003
LeftFoot  3.44993 0.582151 -4.64562
LeftToes  4.7643e-008 1.47522e-008 1.32869e-009
489
root  -4.59934 40.9601 -1.43739 -1.84448 -75.5504 5.85138
RightUpLeg  3.95405 -1.67079 0.661893
RightLeg  -8.00973 -36.6842 6.24016
RightFoot  -1.16258 -0.0626068 0.616365
RightToes  -3.10678e-008 1.75238e-005 3.56266e-009
Spine  9.34134 -0.419103 -4.2525
Spine1  -15.2094 -0.777857 4.59246
HEad  -7.90905 16.9652 -0.144704
LeftShoulder1  -0.346093 5.43233 -10.6254
LeftArm  -75.0806 -11.4893 -8.46798
LeftForeArm  34.4465 -56.7581 -14.1781
LeftHand  -0.487058 -4.39603 6.06289
RightShoulder  0.805745 -0.154345 17.5736
RightArm  2.77809 -19.1932 53.509
RightForeArm  40.0339 71.3903 30.4201
RightHand  -0.308153 7.9437 -3.05169
LeftUpLeg  0.309817 0.673699 3.15174
LeftLeg  -6.44828 4.45972 -1.1366
LeftFoot  3.38696 0.568497 -4.55719
LeftToes  4.7643e-008 1.47522e-008 1.32869e-009
490
root  -4.59625 40.9608 -1.43188 -1.86237 -75.2116 5.81653
RightUpLeg  4.03703 -1.72555 0.630488
RightLeg  -8.05709 -36.9943 6.31674
RightFoot  -1.16201 -0.0708858 0.736333
RightToes  -3.10678e-008 1.75238e-005 3.56266e-009
Spine  9.44152 -0.562652 -4.49192
Spine1  -15.2397 -0.941381 4.84642
HEad  -7.34939 17.5035 0.0739545
LeftShoulder1  -0.368661 5.51604 -11.0457
LeftArm  -73.4263 -11.2986 -9.61345
LeftForeArm  35.8896 -60.4951 -16.6147
LeftHand  -0.545978 -4.40474 6.83394
RightShoulder  0.799791 -0.157983 17.4056
RightArm  3.04957 -19.3426 53.8397
RightForeArm  40.0372 71.6321 30.992
RightHand  -0.341283 7.79228 -3.3713
LeftUpLeg  0.209906 0.642023 3.11005
LeftLeg  -6.21469 4.18487 -1.07665
LeftFoot  3.34324 0.553815 -4.45632
LeftToes  4.7643e-008 1.47522e-008 1.32869e-009
491
root  -4.5933 40.9646 -1.43189 -1.81311 -75.0814 5.68042
RightUpLeg  4.1825 -1.70299 0.665989
RightLeg  -8.20626 -37.1165 6.40414
RightFoot  -1.09338 -0.0690798 0.70003
RightToes  -3.10678e-008 1.75238e-005 3.56266e-009
Spine  9.53442 -0.568179 -4.55929
Spine1  -15.3331 -0.94511 4.77342
HEad  -6.38337 16.9765 0.689209
LeftShoulder1  -0.351217 5.39156 -11.3547
LeftArm  -71.2725 -11.1276 -11.0529
LeftForeArm  38.9532 -65.2292 -20.6867
LeftHand  -0.435262 -5.93234 4.78307
RightShoulder  0.771548 -0.254093 17.2344
RightArm  3.25326 -19.621 54.3359
RightForeArm  41.2294 71.8314 31.2324
RightHand  -0.316148 8.40871 -3.03148
LeftUpLeg  0.175474 0.677324 3.13293
LeftLeg  -6.02587 4.0108 -1.04458
LeftFoot  3.28886 0.5556 -4.49728
LeftToes  4.7643e-008 1.47522e-008 1.32869e-009
492
root  -4.58622 40.9687 -1.41463 -1.91516 -74.9453 5.59973
RightUpLeg  4.45864 -1.7524 0.636351
RightLeg  -8.38633 -37.1619 6.52765
RightFoot  -1.03063 -0.0722348 0.742289
RightToes  -3.10678e-008 1.75238e-005 3.56266e-009
Spine  9.82447 -0.645953 -4.1406
Spine1  -15.6521 -0.961208 3.87345
HEad  -5.80035 17.5541 0.936772
LeftShoulder1  -0.282087 5.01554 -11.4325
LeftArm  -68.4513 -10.6737 -12.3756
LeftForeArm  43.6995 -70.5723 -27.9937
LeftHand  -0.520589 -4.86129 6.18217
RightShoulder  0.786003 -0.215413 17.4083
RightArm  3.66719 -20.0307 54.7039
RightForeArm  41.7541 72.2724 32.2449
RightHand  -0.301596 8.10607 -2.96555
LeftUpLeg  0.308258 0.662181 3.09642
LeftLeg  -5.9473 3.88756 -0.992233
LeftFoot  3.28952 0.553982 -4.43345
LeftToes  4.7643e-008 1.47522e-008 1.32869e-009
493
root  -4.58769 40.9693 -1.40184 -2.03937 -74.8344 5.75531
RightUpLeg  4.50532 -1.66814 0.651378
RightLeg  -8.60248 -37.4348 6.56104
RightFoot  -0.968236 -0.0668723 0.653543
RightToes  -3.10678e-008 1.75238e-005 3.56266e-009
Spine  9.60466 -0.530966 -4.15436
Spine1  -15.5775 -0.830129 3.57512
HEad  -5.10084 17.2992 1.91306
LeftShoulder1  -0.222537 4.66452 -11.9922
LeftArm  -65.3283 -10.7504 -14.0304
LeftForeArm  55.8611 -75.9805 -41.9878
LeftHand  -0.520773 -4.93054 6.15783
RightShoulder  0.755133 -0.326239 17.2615
RightArm  3.87239 -20.4636 55.441
RightForeArm  42.1118 72.4835 32.7331
RightHand  -0.393095 7.87294 -3.80248
LeftUpLeg  0.275483 0.601324 3.01805
LeftLeg  -5.96698 3.82842 -0.973813
LeftFoot  3.33898 0.560732 -4.49202
LeftToes  4.7643e-008 1.47522e-008 1.32869e-009
494
root  -4.58243 40.9691 -1.39221 -1.86951 -74.7238 5.54395
RightUpLeg  4.61041 -1.53574 0.76555
RightLeg  -8.83935 -37.7294 6.62551
RightFoot  -0.895062 -0.0641924 0.607236
RightToes  -3.10678e-008 1.75238e-005 3.56266e-009
Spine  9.44379 -0.423264 -4.22563
Spine1  -15.323 -0.727704 3.53563
HEad  -4.91332 18.3685 2.22772
LeftShoulder1  -0.19506 4.48019 -12.8907
LeftArm  -62.4312 -11.4873 -15.2954
LeftForeArm  81.9121 -79.8343 -69.3105
LeftHand  -0.54306 -5.01545 6.34657
RightShoulder  0.736461 -0.399251 17.2115
RightArm  4.1272 -20.6557 56.0307
RightForeArm  42.2203 72.412 32.5142
RightHand  -0.359192 8.00661 -3.48178
LeftUpLeg  0.264422 0.645998 3.05635
LeftLeg  -5.92894 3.60741 -0.959606
LeftFoot  3.30936 0.565611 -4.55719
LeftToes  4.7643e-008 1.47522e-008 1.32869e-009
495
root  -4.56509 40.9685 -1.38641 -1.85779 -74.2835 5.42206
RightUpLeg  4.68275 -1.59528 0.756388
RightLeg  -8.72515 -38.0744 6.61294
RightFoot  -1.00241 -0.0736347 0.749498
RightToes  -3.10678e-008 1.75238e-005 3.56266e-009
Spine  9.34832 -0.466619 -4.50266
Spine1  -15.0124 -0.790207 3.62633
HEad  -4.45538 18.8721 2.87039
LeftShoulder1  -0.15549 4.2624 -13.4407
LeftArm  -59.8487 -12.7296 -16.5976
LeftForeArm  118.344 -80.0238 -106.872
LeftHand  -0.686221 -5.38876 7.70502
RightShoulder  0.840192 -0.0213594 17.648
RightArm  4.33685 -20.767 55.813
RightForeArm  41.9988 72.179 31.9483
RightHand  -0.324043 8.40068 -3.10082
LeftUpLeg  0.221477 0.649139 3.03919
LeftLeg  -5.77998 3.19388 -0.925193
LeftFoot  3.27943 0.558235 -4.50611
LeftToes  4.7643e-008 1.47522e-008 1.32869e-009
496
root  -4.54625 40.9672 -1.38742 -1.50867 -73.5869 5.06744
RightUpLeg  4.76359 -1.57537 0.841627
RightLeg  -8.97238 -38.7683 6.84317
RightFoot  -0.973228 -0.0754646 0.773656
RightToes  -3.10678e-008 1.75238e-005 3.56266e-009
Spine  9.31 -0.493299 -4.78678
Spine1  -14.9773 -0.834137 3.78617
HEad  -4.25838 20.1832 3.43191
LeftShoulder1  -0.134502 4.15482 -13.6288
LeftArm  -55.762 -14.8843 -18.271
LeftForeArm  143.735 -77.1973 -132.382
LeftHand  -0.785616 -5.26698 8.84381
RightShoulder  0.868018 0.0889266 17.6774
RightArm  4.27882 -21.0825 56.0637
RightForeArm  40.9835 71.6801 30.9102
RightHand  -0.316527 8.16672 -3.08108
LeftUpLeg  0.0143275 0.642077 3.06774
LeftLeg  -5.62948 2.58543 -0.850807
LeftFoot  3.29733 0.543043 -4.38316
LeftToes  4.7643e-008 1.47522e-008 1.32869e-009
497
root  -4.54266 40.9634 -1.38437 -1.45911 -72.9433 4.76965
RightUpLeg  5.14309 -1.54903 0.938751
RightLeg  -9.24221 -39.3934 7.02623
RightFoot  -0.935816 -0.0778861 0.80666
RightToes  -3.10678e-008 1.75238e-005 3.56266e-009
Spine  9.5818 -0.394223 -5.05116
Spine1  -15.14 -0.759558 3.94148
HEad  -3.60752 20.0816 3.56091
LeftShoulder1  -0.0599528 3.79575 -13.4956
LeftArm  -51.8128 -17.4307 -19.5964
LeftForeArm  156.543 -73.8796 -144.632
LeftHand  -0.825304 -5.82355 8.85891
RightShoulder  0.849194 0.00127039 17.7519
RightArm  4.43955 -21.5898 56.0205
RightForeArm  40.342 71.2787 30.0973
RightHand  -0.339956 8.09187 -3.29605
LeftUpLeg  0.196971 0.699321 3.107
LeftLeg  -5.67467 1.89293 -0.80514
LeftFoot  3.27961 0.547296 -4.50441
LeftToes  4.7643e-008 1.47522e-008 1.32869e-009
498
root  -4.51713 40.9559 -1.38592 -1.31915 -72.2263 4.60974
RightUpLeg  5.16183 -1.60427 0.959155
RightLeg  -9.31448 -40.0358 7.17895
RightFoot  -1.00094 -0.0744784 0.748478
RightToes  -3.10678e-008 1.75238e-005 3.56266e-009
Spine  9.61208 -0.466682 -5.38296
Spine1  -15.1378 -0.862368 4.30474
HEad  -3.12577 20.4179 3.46511
LeftShoulder1  -0.00814466 3.54397 -13.3529
LeftArm  -48.6999 -20.2091 -20.494
LeftForeArm  163.626 -71.0236 -151.057
LeftHand  -0.63799 -6.37547 6.61145
RightShoulder  0.909323 0.216753 17.9782
RightArm  4.73834 -21.8111 55.6819
RightForeArm  39.7937 70.8717 29.304
RightHand  -0.349942 8.05172 -3.38937
LeftUpLeg  -0.0460114 0.633637 3.04954
LeftLeg  -5.46695 1.25823 -0.708703
LeftFoot  3.21764 0.536319 -4.37762
LeftToes  4.7643e-008 1.47522e-008 1.32869e-009
499
root  -4.48968 40.9534 -1.37319 -1.53937 -71.7556 4.80719
RightUpLeg  5.16694 -1.73463 0.829366
RightLeg  -9.25822 -40.3665 7.20982
RightFoot  -1.06675 -0.078979 0.811936
RightToes  -3.10678e-008 1.75238e-005 3.56266e-009
Spine  9.61153 -0.534178 -5.73947
Spine1  -15.0939 -0.964579 4.73271
HEad  -2.81365 20.8559 3.06345
LeftShoulder1  0.0518795 3.24981 -13.3977
LeftArm  -47.1197 -22.7046 -21.2872
LeftForeArm  166.899 -69.3099 -153.923
LeftHand  -0.798477 -6.59881 8.07269
RightShoulder  0.937228 0.320031 18.0508
RightArm  5.06275 -21.8628 55.4604
RightForeArm  39.1572 70.3837 28.401
RightHand  -0.372318 8.2696 -3.53613
LeftUpLeg  -0.109481 0.486238 2.88796
LeftLeg  -5.46124 0.993551 -0.639582
LeftFoot  3.24966 0.537003 -4.42127
LeftToes  4.7643e-008 1.47522e-008 1.32869e-009
500
root  -4.44682 40.953 -1.33754 -1.61639 -71.6218 4.87372
RightUpLeg  5.09918 -1.87275 0.687929
RightLeg  -9.12439 -40.3675 7.2031
RightFoot  -1.13997 -0.0776324 0.783168
RightToes  -3.10678e-008 1.75238e-005 3.56266e-009
Spine  9.82298 -0.721897 -5.59984
Spine1  -15.2665 -1.1483 4.76391
HEad  -2.70966 22.2667 2.45256
LeftShoulder1  0.0498574 3.25926 -13.3537
LeftArm  -47.5662 -23.8658 -21.1639
LeftForeArm  166.983 -68.7993 -154.589
LeftHand  -0.742162 -7.06572 7.25826
RightShoulder  0.933486 0.297721 18.1003
RightArm  5.17685 -21.8575 55.7328
RightForeArm  38.41 70.0833 27.9421
RightHand  -0.373347 7.89995 -3.62476
LeftUpLeg  -0.128026 0.376812 2.76185
LeftLeg  -5.50395 1.05596 -0.608613
LeftFoot  3.24874 0.54094 -4.5037
LeftToes  4.7643e-008 1.47522e-008 1.32869e-009
501
root  -4.40917 40.9537 -1.30575 -1.75781 -72.0136 4.98065
RightUpLeg  4.98975 -1.93643 0.571057
RightLeg  -8.84783 -39.9171 7.01394
RightFoot  -1.1788 -0.083298 0.861368
RightToes  -3.10678e-008 1.75238e-005 3.56266e-009
Spine  9.85598 -0.694799 -5.40241
Spine1  -15.2321 -1.11467 4.71599
HEad  -2.71605 22.591 1.75115
LeftShoulder1  0.0512393 3.25087 -13.2196
LeftArm  -49.2582 -24.5223 -20.8516
LeftForeArm  161.26 -70.1536 -151.983
LeftHand  -0.81503 -6.51422 8.272
RightShoulder  0.964946 0.429548 18.0664
RightArm  4.76004 -22.1533 56.1685
RightForeArm  38.34 69.9661 27.7275
RightHand  -0.355022 7.9917 -3.44674
LeftUpLeg  -0.0899586 0.351712 2.69119
LeftLeg  -5.47372 1.45206 -0.644985
LeftFoot  3.16287 0.541054 -4.51396
LeftToes  4.7643e-008 1.47522e-008 1.32869e-009
